<svg xmlns="http://www.w3.org/2000/svg" viewBox="0 0 1024 1024">
  <rect width="1024" height="1024" fill="#245FC7"/>
  <rect x="96" y="96" width="832" height="832" rx="0" fill="#245FC7"/>
  <path d="M184 286c0-57.4 46.6-104 104-104h448c57.4 0 104 46.6 104 104v452c0 57.4-46.6 104-104 104H288c-57.4 0-104-46.6-104-104V286Z" fill="#1F48B7"/>
  <path d="M254 320c0-42 34-76 76-76h364c42 0 76 34 76 76v382c0 42-34 76-76 76H330c-42 0-76-34-76-76V320Z" fill="#2F74E0"/>
  <path d="M326 346c0-20.4 16.6-37 37-37h298c20.4 0 37 16.6 37 37v86c0 20.4-16.6 37-37 37H363c-20.4 0-37-16.6-37-37v-86Z" fill="#91C7FF"/>
  <path d="M326 382c0-20.4 16.6-37 37-37h298c20.4 0 37 16.6 37 37v50c0 20.4-16.6 37-37 37H363c-20.4 0-37-16.6-37-37v-50Z" fill="#D8ECFF"/>
  <path d="M286 506c0-28.7 23.3-52 52-52h348c28.7 0 52 23.3 52 52v180c0 28.7-23.3 52-52 52H338c-28.7 0-52-23.3-52-52V506Z" fill="#173B92"/>
  <path d="M340 536c0-18.8 15.2-34 34-34h276c18.8 0 34 15.2 34 34v116c0 18.8-15.2 34-34 34H374c-18.8 0-34-15.2-34-34V536Z" fill="#111B3F"/>
  <path d="M420 420c0-18.8 15.2-34 34-34h116c18.8 0 34 15.2 34 34v126c0 18.8-15.2 34-34 34H454c-18.8 0-34-15.2-34-34V420Z" fill="#7E5CFF"/>
  <path d="M468 450h48c36.5 0 61 22 61 56s-24.5 56-61 56h-48V450Zm48 76c14.1 0 22-7.1 22-20s-7.9-20-22-20h-10v40h10Z" fill="#EEF5FF"/>
  <path d="M444 606h136c17.7 0 32 14.3 32 32s-14.3 32-32 32H444c-17.7 0-32-14.3-32-32s14.3-32 32-32Z" fill="#51D4FF"/>
  <path d="M546 244 698 396H588c-23.2 0-42-18.8-42-42V244Z" fill="#B8DCFF"/>
</svg>
